<?xml version="1.0" encoding="utf-8"?>
<!-- Uploaded to: SVG Repo, www.svgrepo.com, Generator: SVG Repo Mixer Tools -->
<svg width="800px" height="800px" viewBox="0 0 1024 1024" class="icon"  version="1.1" xmlns="http://www.w3.org/2000/svg"><path d="M848.5 419.3c14.7 16.3 85.2 106.1 5.2 247.2l-214.3-12.8c19-59.4 26.2-137.6-32.2-196.5 45.7-5 196.9-22.3 241.3-37.9z" fill="#FFF0C2" /><path d="M820.9 670.1v6.3l-12-0.7v-5.6z" fill="#998B6A" /><path d="M808.9 675.7v72.6l-192.2-39.1c6-12.2 12.8-27.1 18.8-44l173.4 10.5z" fill="#FFF0C2" /><path d="M808.9 748.3v-72.6l11.9 0.7v86.4l-210-42.7c1.9-3.3 3.8-7 5.8-11l192.3 39.2z" fill="#998B6A" /><path d="M726.1 318.6c14.5 27.9 9.2 62.7-0.1 77-26.2 39.8-104.3 48.3-126.9 49.8l-44.4-3c5.2-30.5 32.1-160.8 103.5-160.8h1.9c31.2 1.1 54.1 13.9 66 37zM591.7 458.6c105.2 94.1 12.8 251-1.2 273.2h-88c2.3-3.1 4.4-6.3 6.4-9.5 67.7-105.2 16.6-226.7 0.2-259.9l3.6-0.4 79-3.4z" fill="#EF4668" /><path d="M632.1 653.2l7.4 0.5c-1.3 3.9-2.6 7.9-3.9 11.6l-4.2-0.2 0.7-11.9zM609.1 707.7l7.6 1.5c-2 3.9-3.9 7.6-5.8 11l-4.2-0.8 2.4-11.7z" fill="#F59A9B" /><path d="M848.5 419.3c-44.5 15.6-195.7 32.9-241.2 37.9 0-0.1-0.1-0.2-0.2-0.4 22.8-2.1 59.5-7.7 89.5-22.3 60.2-8 128.6-18.4 151.2-27.8l3.6-1.4 2.9 2.6c1.1 1.1 104.1 102.1 8 267.7l-1.8 3.2-39.6-2.4v-6.3H809v5.6l-173.4-10.5c1.3-3.7 2.6-7.6 3.9-11.6l214.3 12.8c80-141 9.4-230.8-5.3-247.1z" fill="#998B6A" /><path d="M607.1 456.8c0.1 0.1 0.2 0.2 0.2 0.4-7.2 0.7-11.7 1.2-12.9 1.3l-0.1-1.4 4.9 0.4c2.4-0.3 5-0.5 7.9-0.7z" fill="#F59A9B" /><path d="M599.2 457.4l-4.9-0.4-1.2-10.5c0.1 0 0.7 0 1.7-0.1h1.1l1.8 1.5c3.3 2.9 6.4 5.8 9.4 8.8-2.9 0.3-5.5 0.5-7.9 0.7z" fill="#F59A9B" /><path d="M597.7 448l-1.8-1.5h-1.1c8.8-1 52.6-5.6 101.8-11.9-30 14.5-66.8 20.1-89.5 22.3-3-3.1-6.1-6.1-9.4-8.9z" fill="#998B6A" /><path d="M593.1 446.6l1.2 10.5-43.4-2.9 0.1-0.7c0.1-0.5 0.4-2.3 0.6-5.1l41.5-1.8zM554.7 442.5l44.4 3c22.5-1.5 100.6-10 126.9-49.8 9.3-14.3 14.7-49.1 0.1-77-11.9-23.1-34.8-35.9-65.9-37h-1.9c-71.5 0-98.3 130.3-103.6 160.8z m-3.1 5.8c1.2-9.3 3.1-30.3 1.5-53.8 14.7-52.5 45.8-125 104.9-125 0.8 0 1.7 0.1 2.5 0.1 45.1 1.5 66.2 24.4 76.1 43.3 15.7 30.4 11.8 69.9-0.8 89.2-9.1 13.9-23.2 24.3-39.2 32.3-49.2 6.3-93 11-101.8 11.9-1 0.1-1.5 0.1-1.7 0.1l-41.5 1.9z" fill="#F59A9B" /><path d="M541.9 447.3c0.4-2.6 3.5-24.8 11.3-52.7 1.5 23.5-0.4 44.5-1.5 53.8l-10 0.4 0.2-1.5z" fill="#F59A9B" /><path d="M541.6 448.7l10-0.4c-0.2 2.9-0.5 4.6-0.6 5.1l-0.1 0.7-9.9-0.6 0.6-4.8z" fill="#F59A9B" /><path d="M519.2 325.3c28.6 32.1 22.7 103.1 20.6 121.7l-29.1 3-11.9 0.6h-0.1c-12.6-4.2-42.2-20-62.5-42.3-12.3-13.6-24-45.1-13.8-69 7.9-18.5 27.7-28.7 57.3-29.8h2.4c15.4-0.1 27.6 5.1 37.1 15.8z" fill="#EF4668" /><path d="M524.3 658.1c1-3.9 1.9-7.9 2.6-11.8h5.1l-0.1 11.9c-2.2 0-4.8-0.1-7.6-0.1z" fill="#F59A9B" /><path d="M495.8 462.4c8.5 16 48.5 97.6 31.1 183.8-59.1-0.2-239.4 10.8-278.6 13.4 17.9-34.7 15.5-132.9 12-194.3-0.4-5.6-1.1-10.7-2.3-15.7-1.3-5.4-3.3-12.2-6.3-19.1 42.4 6.8 190 30 244.1 31.9z" fill="#FFF0C2" /><path d="M524.3 658.1c-4.5 17.3-11.4 34.7-21.7 51.6L189 749.3c-104.8-136-76.5-245.7-50.3-299.1 8.9-18.2 22.3-32.3 38.5-40.5 15.1-7.6 28.3-9.1 39-4.1 10.1 4.6 17.2 14.3 22.1 24.2 4.3 8.7 6.8 17.4 8.1 22.7 1.1 4.3 1.7 8.7 2 13.5 1.1 19.1 1.8 37.2 2 54.4l-31.7 0.8-8.9-7.9c-0.6 0.7-60.3 70.2-0.2 144.7 9.5 11.7 18.4 16.3 26.6 13.7 0.1 0.1 0.1 0 0.2 0 31.6-1.9 224.5-13.5 287.9-13.6z" fill="#FFF0C2" /><path d="M512.8 461.9l-3.6 0.4c0-0.1-0.1-0.1-0.1-0.2l3.7-0.2zM510.8 450l-8.8 1-0.1 0.5c-0.7-0.1-1.4-0.4-2.3-0.6v-0.2h-0.7l11.9-0.7zM505.6 709.3l1.5 11.8-13 1.7c3.1-4.4 6-8.7 8.5-13.1l3-0.4z" fill="#F59A9B" /><path d="M590.5 731.7c13.9-22.2 106.4-179.1 1.2-273.2l-78.9 3.3 37.6-3.9 0.6-3.8 43.4 2.9 0.1 1.4c1.2-0.1 5.7-0.6 12.9-1.3 58.4 58.9 51.1 137.1 32.2 196.5l-7.4-0.5-0.7 11.8 4.2 0.2c-6.1 16.9-12.9 31.8-18.8 44l-7.6-1.5-2.4 11.7 4.2 0.8c-6.9 12.9-11.9 20.5-12.2 20.9l-1.8 2.6H478l7.9-9.8c3-3.7 5.7-7.4 8.3-11.1l13-1.7 1.8 1.1c-2 3.2-4.2 6.4-6.4 9.5h87.9z" fill="#F59A9B" /><path d="M541 453.6l9.9 0.6-0.6 3.8-37.6 3.9-3.7 0.1c0 0.1 0.1 0.1 0.1 0.2h-0.1c-0.7 0.5-1.7 0.8-2.7 1.1-0.6 0.1-1.2 0.1-1.9 0.1-1.7 0-3.8-0.4-6.3-1h1.3l0.2-11.7c0.8 0.2 1.5 0.5 2.3 0.6l0.1-0.5 8.8-1 30.9-1.3-0.7 5.1zM499.5 450.6v0.2c-0.2-0.1-0.5-0.1-0.7-0.2h0.7z" fill="#F59A9B" /><path d="M494.3 459.6l-5-8.6 9.3-0.4h0.2c0.2 0.1 0.5 0.1 0.7 0.2l-0.2 11.7H498s-0.1 0-0.2-0.1c-0.7-0.1-1.4-0.4-2.3-0.6-0.7-1.4-1.2-2.1-1.2-2.2z" fill="#F59A9B" /><path d="M509.2 462.3c16.3 33.3 67.5 154.8-0.2 259.9l-1.8-1.1-1.5-11.8-3 0.4c10.3-16.9 17.2-34.3 21.7-51.6 2.7 0 5.4 0.1 7.6 0.1l0.1-11.9H527c17.4-86.2-22.7-167.9-31.1-183.8 0.6 0 1.3 0.1 1.9 0 0.1 0.1 0.2 0.1 0.2 0.1 2.5 0.6 4.6 1 6.3 1 0.7 0 1.3 0 1.9-0.1 1.1-0.2 2-0.6 2.7-1.1h0.3zM495.8 462.4c-0.1-0.2-0.2-0.5-0.4-0.6 0.8 0.2 1.5 0.5 2.3 0.6-0.5 0.1-1.3 0-1.9 0zM495.5 461.8c-7.5-2.4-17.6-7.2-28.3-13.5 12.5 1.2 23.2 2 31.4 2.3l-9.3 0.4 5 8.6c0 0.1 0.5 0.8 1.2 2.2z" fill="#F59A9B" /><path d="M553.2 394.6c-7.9 27.9-11 50.1-11.3 52.7l-0.2 1.4-30.9 1.3 29.1-3c2-18.6 8-89.7-20.6-121.7-9.5-10.7-21.7-15.9-37.1-15.9h-2.4c-29.7 1.1-49.5 11.3-57.3 29.8-10.1 24 1.5 55.4 13.8 69 20.3 22.3 49.8 38.2 62.5 42.3h-0.1c-8.1-0.2-18.8-1.1-31.4-2.3-13.8-8.5-28.5-19.7-39.8-32.1-16.6-18.2-27.4-54.6-16-81.7 6.8-16.1 24.1-35.5 68-37.1 19.9-0.7 36.4 6 48.8 19.8 17.1 19.6 23.3 50.3 24.9 77.5z" fill="#F59A9B" /><path d="M495.8 462.4c-54.1-1.9-201.7-25.2-244.1-32-1.8-4.4-3.9-8.9-6.6-13.1 20.6 3.3 150.2 24.2 222 31 10.6 6.3 20.7 11.1 28.3 13.5 0.2 0.1 0.3 0.4 0.4 0.6zM248.3 659.6c39.2-2.5 219.5-13.6 278.6-13.4-0.7 3.9-1.7 7.9-2.6 11.8-63.4 0.1-256.3 11.7-287.9 13.6 0.2-0.1 0.5-0.1 0.7-0.2 4.4-1.6 8.1-5.8 11.2-11.8z" fill="#998B6A" /><path d="M241.1 660.1c0.8 0 3.3-0.2 7.3-0.5-3.1 6-6.8 10.1-11.2 11.8-0.2 0.1-0.5 0.1-0.7 0.2-0.1 0-0.1 0.1-0.2 0-2.6 0.1-4.1 0.2-4.2 0.2l9-11.7zM245.2 417.3c2.6 4.2 4.8 8.7 6.6 13.1-6.3-1-10.3-1.7-11.3-1.8l1.9-11.8c0.1 0.1 1 0.3 2.8 0.5z" fill="#998B6A" /><path d="M232.8 660.2c-2.9 1.2-8.1-2.5-13.9-9.7-53.7-66.8-2.4-127-0.1-129.5l31.7-0.8c1.4 79.2-5.3 135.4-17.7 140z" fill="#FFF0C2" /><path d="M251.8 430.5c3 6.9 5 13.7 6.3 19.1 1.2 5 1.9 10.1 2.3 15.7 3.5 61.4 5.8 159.6-12 194.3-3.9 0.2-6.4 0.5-7.3 0.5l-9.1 11.8c0.1 0 1.5-0.1 4.2-0.2-8.2 2.6-17-2-26.6-13.7-60.1-74.5-0.4-144 0.2-144.7l8.9 7.9c-2.3 2.5-53.5 62.7 0.1 129.5 5.8 7.2 11.1 10.8 13.9 9.7 12.4-4.6 19.1-60.8 17.6-140-0.2-17.2-1-35.3-2-54.4-0.4-4.8-1-9.2-2-13.5-1.3-5.2-3.8-13.9-8.1-22.7l2.1-1.1c1.2 0.1 5.2 0.8 11.5 1.8z" fill="#998B6A" /><path d="M216.3 405.5c-10.7-5-23.8-3.6-39 4.1-16.2 8.2-29.6 22.3-38.5 40.5-26.2 53.4-54.5 163.1 50.3 299.1l313.6-39.6c-2.5 4.4-5.4 8.7-8.5 13.1l-310.4 39.1-2-2.6c-115.4-147.6-76.1-269-53.8-314.3 10.1-20.6 25.3-36.5 43.9-45.9 18.5-9.4 35.1-10.8 49.4-4.3 10.4 4.8 18.1 13.2 24 22.7-1.8-0.2-2.7-0.5-2.9-0.5l-1.9 11.8-2.1 1.1c-5-10-12-19.6-22.1-24.3z" fill="#998B6A" /></svg>